<svg xmlns="http://www.w3.org/2000/svg" xmlns:svg="http://www.w3.org/2000/svg" id="svg2" width="693.09" height="693.09" version="1.1" viewBox="0 -64 693.09 693.09"><metadata id="metadata12"/><g id="g4" transform="matrix(1,0,0,-1,-198.42637,727.49293)" style="fill:#c2f69e;fill-opacity:1"><path id="path6" d="m 394.705,591.36 13.033,156.393 c 3.724,39.098 50.269,57.716 80.058,31.651 L 605.091,673.28 c 11.171,-11.171 27.927,-14.895 42.822,-11.171 l 152.669,37.236 c 39.098,9.309 70.749,-29.789 53.993,-67.025 L 789.411,487.098 c -5.585,-14.895 -5.585,-31.651 3.724,-44.684 l 81.92,-135.913 c 20.48,-33.513 -7.447,-76.335 -46.545,-72.611 l -158.255,18.618 c -16.756,1.862 -31.651,-3.724 -40.96,-16.756 L 526.895,114.734 C 500.83,84.945 450.56,97.978 443.113,137.076 l -31.651,154.531 c -3.724,14.895 -13.033,27.927 -27.927,33.513 l -147.084,61.44 c -35.375,14.895 -39.098,67.025 -3.724,85.644 L 370.502,550.4 c 13.033,11.171 22.342,26.065 24.204,40.96 l -0.001,0 z" style="fill:#c2f69e;fill-opacity:1"/></g></svg>